<svg width="18" height="14" viewBox="0 0 18 14" fill="none" xmlns="http://www.w3.org/2000/svg">
<path d="M9.48214 5.47295L10.6518 6.0176L12.3929 5.49974V4.28545C12.3929 2.22295 10.6518 0.571167 8.57143 0.571167C6.5 0.571167 4.75 2.21402 4.75 4.25867V9.79438C4.75 10.3033 4.33929 10.7051 3.83929 10.7051C3.33929 10.7051 2.92857 10.3033 2.92857 9.79438V7.4551H0C0 9.80331 0 9.8301 0 9.8301C0 11.9462 1.71429 13.6605 3.83036 13.6605C5.92857 13.6605 7.66071 11.973 7.66071 9.88367V4.41938C7.66071 3.91938 8.07143 3.50867 8.57143 3.50867C9.07143 3.50867 9.48214 3.91938 9.48214 4.41938V5.47295ZM14.2143 7.4551V9.91045C14.2143 10.4105 13.8036 10.8122 13.3036 10.8122C12.8036 10.8122 12.3929 10.4105 12.3929 9.91045V7.49974L10.6518 8.0176L9.48214 7.47295V9.86581C9.48214 11.964 11.2054 13.6605 13.3125 13.6605C15.4286 13.6605 17.1429 11.9462 17.1429 9.8301C17.1429 9.8301 17.1429 9.80331 17.1429 7.4551H14.2143Z" fill="white"/>
</svg>
