<svg width="68" height="67" viewBox="0 0 68 67" fill="none" xmlns="http://www.w3.org/2000/svg">
<path d="M37.6799 8.42617L18.1496 14.4376C11.0324 16.6282 7.9973 22.1449 9.75752 29.6911L14.5832 50.379C16.3434 57.9252 21.3731 60.9595 28.4903 58.7689L48.0206 52.7575C55.1378 50.5668 58.1543 45.0558 56.3941 37.5097L51.5684 16.8218C49.8082 9.27558 44.7971 6.23553 37.6799 8.42617Z" fill="url(#paint0_linear_689_76)"/>
<g opacity="0.5" filter="url(#filter0_f_689_76)">
<path d="M36.2811 17.6791L23.3804 21.6497C18.6792 23.0967 16.6426 26.6043 17.7492 31.3481L20.783 44.3534C21.8896 49.0973 25.1801 50.9652 29.8814 49.5183L42.7821 45.5476C47.4833 44.1007 49.5076 40.5969 48.401 35.853L45.3673 22.8477C44.2607 18.1039 40.9824 16.2322 36.2811 17.6791Z" fill="#E31313"/>
</g>
<g filter="url(#filter1_b_689_76)">
<path d="M50.5629 19.2969H32.1052C24.8881 19.2969 20.0342 24.8546 20.0342 33.121V52.1992C20.0342 60.4424 24.8881 66 32.1052 66H50.5629C57.78 66 62.6126 60.4424 62.6126 52.1992V33.121C62.6126 24.8546 57.78 19.2969 50.5629 19.2969Z" fill="#F03E3D"/>
</g>
<g filter="url(#filter2_b_689_76)">
<path fill-rule="evenodd" clip-rule="evenodd" d="M32.1052 18.2969H50.5629C54.4456 18.2969 57.7384 19.8004 60.0482 22.4522C62.3475 25.0919 63.6126 28.797 63.6126 33.121V52.1992C63.6126 56.5122 62.3471 60.2115 60.0478 62.8481C57.7381 65.4966 54.4455 67 50.5629 67H32.1052C28.2229 67 24.9254 65.4968 22.6104 62.849C20.3056 60.2128 19.0342 56.5133 19.0342 52.1992V33.121C19.0342 28.7959 20.3053 25.0906 22.61 22.4513C24.9251 19.8001 28.2228 18.2969 32.1052 18.2969ZM32.1052 19.2969H50.5629C57.78 19.2969 62.6126 24.8546 62.6126 33.121V52.1992C62.6126 60.4424 57.78 66 50.5629 66H32.1052C24.8881 66 20.0342 60.4424 20.0342 52.1992V33.121C20.0342 24.8546 24.8881 19.2969 32.1052 19.2969Z" fill="url(#paint1_linear_689_76)"/>
</g>
<g filter="url(#filter3_b_689_76)">
<path d="M64.8714 15.8657C63.1437 15.8657 61.7432 17.4019 61.7432 19.297C61.7432 21.192 63.1437 22.7282 64.8714 22.7282C66.599 22.7282 67.9996 21.192 67.9996 19.297C67.9996 18.3869 67.67 17.5142 67.0834 16.8707C66.4967 16.2272 65.701 15.8657 64.8714 15.8657Z" fill="url(#paint2_linear_689_76)"/>
</g>
<g filter="url(#filter4_bd_689_76)">
<path fill-rule="evenodd" clip-rule="evenodd" d="M44.1309 47.4321C44.4631 47.7258 44.8901 47.859 45.3138 47.801C45.7374 47.743 46.1214 47.4988 46.3773 47.1245L52.4615 38.5129V38.4719C52.9823 37.7042 52.8494 36.6217 52.1619 36.0319C51.8292 35.7502 51.4063 35.6282 50.99 35.6939C50.5737 35.7596 50.1995 36.0073 49.9529 36.3805L44.8235 43.6184L38.9828 38.5744C38.6493 38.2895 38.2251 38.1636 37.8059 38.2254C37.3868 38.2871 37.008 38.5312 36.7551 38.9025L30.465 47.8011C30.2439 48.1034 30.1249 48.48 30.128 48.8673C30.0915 49.6501 30.5422 50.3612 31.2245 50.5974C31.9068 50.8337 32.6488 50.5355 33.0297 49.872L38.2901 42.4086L44.1309 47.4321ZM51.9025 36.3364C51.6552 36.1274 51.3489 36.0422 51.0524 36.089C50.7545 36.136 50.4756 36.3151 50.2866 36.601L50.2795 36.6119L44.8953 44.2089L38.7229 38.8785C38.7227 38.8783 38.7232 38.8787 38.7229 38.8785C38.4739 38.666 38.1643 38.5769 37.8642 38.6211C37.5629 38.6655 37.2799 38.8425 37.0857 39.1277L37.0817 39.1334L30.7879 48.0373C30.6194 48.2677 30.5255 48.5596 30.528 48.8641L30.5281 48.875L30.5276 48.886C30.4984 49.5123 30.8595 50.0477 31.3554 50.2194C31.8407 50.3875 32.3891 50.1843 32.6828 49.6729L32.6921 49.6568L38.217 41.8181L44.3959 47.1324C44.6445 47.3523 44.956 47.4463 45.2595 47.4047C45.5639 47.363 45.8506 47.1861 46.0472 46.8987L46.0506 46.8937L52.0615 38.3859V38.349L52.1304 38.2473C52.5411 37.642 52.4289 36.789 51.9025 36.3364Z" fill="url(#paint3_linear_689_76)"/>
</g>
<g filter="url(#filter5_bd_689_76)">
<path d="M52.4615 38.5129L46.3773 47.1245C46.1214 47.4988 45.7374 47.743 45.3138 47.801C44.8901 47.859 44.4631 47.7258 44.1309 47.4321L38.2901 42.4086L33.0297 49.872C32.6488 50.5355 31.9068 50.8337 31.2245 50.5974C30.5422 50.3612 30.0915 49.6501 30.128 48.8673C30.1249 48.48 30.2439 48.1034 30.465 47.8011L36.7551 38.9025C37.008 38.5312 37.3868 38.2871 37.8059 38.2254C38.2251 38.1636 38.6493 38.2895 38.9828 38.5744L44.8235 43.6184L49.9529 36.3805C50.1995 36.0073 50.5737 35.7596 50.99 35.6939C51.4063 35.6282 51.8292 35.7502 52.1619 36.0319C52.8494 36.6217 52.9823 37.7042 52.4615 38.4719V38.5129Z" fill="url(#paint4_linear_689_76)"/>
</g>
<defs>
<filter id="filter0_f_689_76" x="0.454102" y="0.201172" width="65.2432" height="66.7954" filterUnits="userSpaceOnUse" color-interpolation-filters="sRGB">
<feFlood flood-opacity="0" result="BackgroundImageFix"/>
<feBlend mode="normal" in="SourceGraphic" in2="BackgroundImageFix" result="shape"/>
<feGaussianBlur stdDeviation="8.5" result="effect1_foregroundBlur_689_76"/>
</filter>
<filter id="filter1_b_689_76" x="-3.96582" y="-4.70312" width="90.5781" height="94.7031" filterUnits="userSpaceOnUse" color-interpolation-filters="sRGB">
<feFlood flood-opacity="0" result="BackgroundImageFix"/>
<feGaussianBlur in="BackgroundImage" stdDeviation="12"/>
<feComposite in2="SourceAlpha" operator="in" result="effect1_backgroundBlur_689_76"/>
<feBlend mode="normal" in="SourceGraphic" in2="effect1_backgroundBlur_689_76" result="shape"/>
</filter>
<filter id="filter2_b_689_76" x="-4.96582" y="-5.70312" width="92.5781" height="96.7031" filterUnits="userSpaceOnUse" color-interpolation-filters="sRGB">
<feFlood flood-opacity="0" result="BackgroundImageFix"/>
<feGaussianBlur in="BackgroundImage" stdDeviation="12"/>
<feComposite in2="SourceAlpha" operator="in" result="effect1_backgroundBlur_689_76"/>
<feBlend mode="normal" in="SourceGraphic" in2="effect1_backgroundBlur_689_76" result="shape"/>
</filter>
<filter id="filter3_b_689_76" x="46.7432" y="0.865723" width="36.2568" height="36.8625" filterUnits="userSpaceOnUse" color-interpolation-filters="sRGB">
<feFlood flood-opacity="0" result="BackgroundImageFix"/>
<feGaussianBlur in="BackgroundImage" stdDeviation="7.5"/>
<feComposite in2="SourceAlpha" operator="in" result="effect1_backgroundBlur_689_76"/>
<feBlend mode="normal" in="SourceGraphic" in2="effect1_backgroundBlur_689_76" result="shape"/>
</filter>
<filter id="filter4_bd_689_76" x="15.126" y="20.6765" width="52.6533" height="45.0012" filterUnits="userSpaceOnUse" color-interpolation-filters="sRGB">
<feFlood flood-opacity="0" result="BackgroundImageFix"/>
<feGaussianBlur in="BackgroundImage" stdDeviation="7.5"/>
<feComposite in2="SourceAlpha" operator="in" result="effect1_backgroundBlur_689_76"/>
<feColorMatrix in="SourceAlpha" type="matrix" values="0 0 0 0 0 0 0 0 0 0 0 0 0 0 0 0 0 0 127 0" result="hardAlpha"/>
<feOffset dx="5" dy="5"/>
<feGaussianBlur stdDeviation="5"/>
<feColorMatrix type="matrix" values="0 0 0 0 1 0 0 0 0 0.321569 0 0 0 0 0.54902 0 0 0 0.5 0"/>
<feBlend mode="normal" in2="effect1_backgroundBlur_689_76" result="effect2_dropShadow_689_76"/>
<feBlend mode="normal" in="SourceGraphic" in2="effect2_dropShadow_689_76" result="shape"/>
</filter>
<filter id="filter5_bd_689_76" x="15.126" y="20.6765" width="52.6533" height="45.0012" filterUnits="userSpaceOnUse" color-interpolation-filters="sRGB">
<feFlood flood-opacity="0" result="BackgroundImageFix"/>
<feGaussianBlur in="BackgroundImage" stdDeviation="7.5"/>
<feComposite in2="SourceAlpha" operator="in" result="effect1_backgroundBlur_689_76"/>
<feColorMatrix in="SourceAlpha" type="matrix" values="0 0 0 0 0 0 0 0 0 0 0 0 0 0 0 0 0 0 127 0" result="hardAlpha"/>
<feOffset dx="5" dy="5"/>
<feGaussianBlur stdDeviation="5"/>
<feColorMatrix type="matrix" values="0 0 0 0 1 0 0 0 0 0.321569 0 0 0 0 0.54902 0 0 0 0.5 0"/>
<feBlend mode="normal" in2="effect1_backgroundBlur_689_76" result="effect2_dropShadow_689_76"/>
<feBlend mode="normal" in="SourceGraphic" in2="effect2_dropShadow_689_76" result="shape"/>
</filter>
<linearGradient id="paint0_linear_689_76" x1="36.8464" y1="35.6215" x2="2.4676" y2="63.315" gradientUnits="userSpaceOnUse">
<stop stop-color="#F03E3D"/>
<stop offset="1" stop-color="#870404"/>
</linearGradient>
<linearGradient id="paint1_linear_689_76" x1="26.1303" y1="23.9709" x2="57.663" y2="59.7173" gradientUnits="userSpaceOnUse">
<stop stop-color="white" stop-opacity="0.25"/>
<stop offset="1" stop-color="white" stop-opacity="0"/>
</linearGradient>
<linearGradient id="paint2_linear_689_76" x1="65.332" y1="19.7565" x2="59.6511" y2="22.2747" gradientUnits="userSpaceOnUse">
<stop stop-color="#FF759F" stop-opacity="0"/>
<stop offset="1" stop-color="#FF196E"/>
</linearGradient>
<linearGradient id="paint3_linear_689_76" x1="33.732" y1="37.4242" x2="41.8726" y2="52.6495" gradientUnits="userSpaceOnUse">
<stop stop-color="white" stop-opacity="0.25"/>
<stop offset="1" stop-color="white" stop-opacity="0"/>
</linearGradient>
<linearGradient id="paint4_linear_689_76" x1="51.1732" y1="38.3854" x2="25.9738" y2="39.6261" gradientUnits="userSpaceOnUse">
<stop stop-color="white"/>
<stop offset="1" stop-color="white" stop-opacity="0.2"/>
</linearGradient>
</defs>
</svg>
