<svg width="68" height="67" fill="none" xmlns="http://www.w3.org/2000/svg"><path d="M37.68 8.426l-19.53 6.012c-7.118 2.19-10.153 7.707-8.392 15.253l4.825 20.688c1.76 7.546 6.79 10.58 13.907 8.39l19.53-6.011c7.118-2.191 10.134-7.702 8.374-15.248l-4.826-20.688c-1.76-7.546-6.77-10.586-13.888-8.396z" fill="url(#paint0_linear_689_76)"/><g opacity=".5" filter="url(#filter0_f_689_76)"><path d="M36.281 17.68l-12.9 3.97c-4.702 1.447-6.738 4.954-5.632 9.698l3.034 13.005c1.107 4.744 4.397 6.612 9.098 5.165l12.901-3.97c4.701-1.447 6.726-4.951 5.619-9.695l-3.034-13.005c-1.106-4.744-4.385-6.616-9.086-5.169z" fill="#E31313"/></g><g filter="url(#filter1_b_689_76)"><path d="M50.563 19.297H32.105c-7.217 0-12.07 5.558-12.07 13.824v19.078c0 8.243 4.853 13.801 12.07 13.801h18.458c7.217 0 12.05-5.558 12.05-13.8V33.12c0-8.266-4.833-13.824-12.05-13.824z" fill="#F03E3D"/></g><g filter="url(#filter2_b_689_76)"><path fill-rule="evenodd" clip-rule="evenodd" d="M32.105 18.297h18.458c3.883 0 7.175 1.503 9.485 4.155 2.3 2.64 3.565 6.345 3.565 10.669v19.078c0 4.313-1.266 8.013-3.565 10.65C57.738 65.496 54.446 67 50.563 67H32.105c-3.882 0-7.18-1.503-9.495-4.151-2.304-2.636-3.576-6.336-3.576-10.65V33.121c0-4.325 1.271-8.03 3.576-10.67 2.315-2.65 5.613-4.154 9.495-4.154zm0 1h18.458c7.217 0 12.05 5.558 12.05 13.824v19.078C62.613 60.442 57.78 66 50.563 66H32.105c-7.217 0-12.07-5.558-12.07-13.8V33.12c0-8.266 4.853-13.824 12.07-13.824z" fill="url(#paint1_linear_689_76)"/></g><g filter="url(#filter3_b_689_76)"><path d="M64.871 15.866c-1.727 0-3.128 1.536-3.128 3.431s1.4 3.431 3.128 3.431c1.728 0 3.129-1.536 3.129-3.431 0-.91-.33-1.783-.917-2.426-.586-.644-1.382-1.005-2.212-1.005z" fill="url(#paint2_linear_689_76)"/></g><g filter="url(#filter4_bd_689_76)"><path fill-rule="evenodd" clip-rule="evenodd" d="M44.13 47.432c.333.294.76.427 1.184.369a1.55 1.55 0 001.063-.677l6.084-8.611v-.041c.521-.768.388-1.85-.3-2.44a1.456 1.456 0 00-1.171-.338 1.54 1.54 0 00-1.037.686l-5.13 7.238-5.84-5.044a1.475 1.475 0 00-1.177-.349c-.42.062-.798.306-1.05.678L30.464 47.8c-.221.302-.34.679-.337 1.066-.037.783.414 1.494 1.096 1.73.683.237 1.425-.062 1.806-.725l5.26-7.463 5.84 5.023zm7.773-11.096a1.056 1.056 0 00-.85-.247 1.139 1.139 0 00-.766.512l-.008.01-5.384 7.598-6.172-5.33a1.077 1.077 0 00-.859-.258 1.153 1.153 0 00-.778.507l-.004.005-6.294 8.904c-.169.23-.262.523-.26.827v.022c-.03.626.332 1.162.827 1.333.486.169 1.034-.035 1.328-.546l.01-.016 5.524-7.839 6.179 5.314c.248.22.56.314.864.273.304-.042.59-.219.787-.506l.004-.005 6.01-8.508v-.037l.07-.102c.41-.605.298-1.458-.228-1.91z" fill="url(#paint3_linear_689_76)"/></g><g filter="url(#filter5_bd_689_76)"><path d="M52.462 38.513l-6.085 8.611a1.55 1.55 0 01-1.063.677 1.478 1.478 0 01-1.183-.369l-5.84-5.023-5.261 7.463c-.381.663-1.123.962-1.806.725-.682-.236-1.133-.947-1.096-1.73a1.786 1.786 0 01.337-1.066l6.29-8.898a1.552 1.552 0 011.05-.678c.42-.061.844.064 1.178.35l5.84 5.043 5.13-7.238c.246-.373.62-.62 1.037-.686.416-.066.84.056 1.172.338.687.59.82 1.672.3 2.44v.04z" fill="url(#paint4_linear_689_76)"/></g><defs><filter id="filter0_f_689_76" x=".454" y=".201" width="65.243" height="66.795" filterUnits="userSpaceOnUse" color-interpolation-filters="sRGB"><feFlood flood-opacity="0" result="BackgroundImageFix"/><feBlend in="SourceGraphic" in2="BackgroundImageFix" result="shape"/><feGaussianBlur stdDeviation="8.5" result="effect1_foregroundBlur_689_76"/></filter><filter id="filter1_b_689_76" x="-3.966" y="-4.703" width="90.578" height="94.703" filterUnits="userSpaceOnUse" color-interpolation-filters="sRGB"><feFlood flood-opacity="0" result="BackgroundImageFix"/><feGaussianBlur in="BackgroundImage" stdDeviation="12"/><feComposite in2="SourceAlpha" operator="in" result="effect1_backgroundBlur_689_76"/><feBlend in="SourceGraphic" in2="effect1_backgroundBlur_689_76" result="shape"/></filter><filter id="filter2_b_689_76" x="-4.966" y="-5.703" width="92.578" height="96.703" filterUnits="userSpaceOnUse" color-interpolation-filters="sRGB"><feFlood flood-opacity="0" result="BackgroundImageFix"/><feGaussianBlur in="BackgroundImage" stdDeviation="12"/><feComposite in2="SourceAlpha" operator="in" result="effect1_backgroundBlur_689_76"/><feBlend in="SourceGraphic" in2="effect1_backgroundBlur_689_76" result="shape"/></filter><filter id="filter3_b_689_76" x="46.743" y=".866" width="36.257" height="36.862" filterUnits="userSpaceOnUse" color-interpolation-filters="sRGB"><feFlood flood-opacity="0" result="BackgroundImageFix"/><feGaussianBlur in="BackgroundImage" stdDeviation="7.5"/><feComposite in2="SourceAlpha" operator="in" result="effect1_backgroundBlur_689_76"/><feBlend in="SourceGraphic" in2="effect1_backgroundBlur_689_76" result="shape"/></filter><filter id="filter4_bd_689_76" x="15.126" y="20.677" width="52.653" height="45.001" filterUnits="userSpaceOnUse" color-interpolation-filters="sRGB"><feFlood flood-opacity="0" result="BackgroundImageFix"/><feGaussianBlur in="BackgroundImage" stdDeviation="7.5"/><feComposite in2="SourceAlpha" operator="in" result="effect1_backgroundBlur_689_76"/><feColorMatrix in="SourceAlpha" values="0 0 0 0 0 0 0 0 0 0 0 0 0 0 0 0 0 0 127 0" result="hardAlpha"/><feOffset dx="5" dy="5"/><feGaussianBlur stdDeviation="5"/><feColorMatrix values="0 0 0 0 1 0 0 0 0 0.321569 0 0 0 0 0.54902 0 0 0 0.5 0"/><feBlend in2="effect1_backgroundBlur_689_76" result="effect2_dropShadow_689_76"/><feBlend in="SourceGraphic" in2="effect2_dropShadow_689_76" result="shape"/></filter><filter id="filter5_bd_689_76" x="15.126" y="20.677" width="52.653" height="45.001" filterUnits="userSpaceOnUse" color-interpolation-filters="sRGB"><feFlood flood-opacity="0" result="BackgroundImageFix"/><feGaussianBlur in="BackgroundImage" stdDeviation="7.5"/><feComposite in2="SourceAlpha" operator="in" result="effect1_backgroundBlur_689_76"/><feColorMatrix in="SourceAlpha" values="0 0 0 0 0 0 0 0 0 0 0 0 0 0 0 0 0 0 127 0" result="hardAlpha"/><feOffset dx="5" dy="5"/><feGaussianBlur stdDeviation="5"/><feColorMatrix values="0 0 0 0 1 0 0 0 0 0.321569 0 0 0 0 0.54902 0 0 0 0.5 0"/><feBlend in2="effect1_backgroundBlur_689_76" result="effect2_dropShadow_689_76"/><feBlend in="SourceGraphic" in2="effect2_dropShadow_689_76" result="shape"/></filter><linearGradient id="paint0_linear_689_76" x1="36.846" y1="35.621" x2="2.468" y2="63.315" gradientUnits="userSpaceOnUse"><stop stop-color="#F03E3D"/><stop offset="1" stop-color="#870404"/></linearGradient><linearGradient id="paint1_linear_689_76" x1="26.13" y1="23.971" x2="57.663" y2="59.717" gradientUnits="userSpaceOnUse"><stop stop-color="#fff" stop-opacity=".25"/><stop offset="1" stop-color="#fff" stop-opacity="0"/></linearGradient><linearGradient id="paint2_linear_689_76" x1="65.332" y1="19.756" x2="59.651" y2="22.275" gradientUnits="userSpaceOnUse"><stop stop-color="#FF759F" stop-opacity="0"/><stop offset="1" stop-color="#FF196E"/></linearGradient><linearGradient id="paint3_linear_689_76" x1="33.732" y1="37.424" x2="41.873" y2="52.65" gradientUnits="userSpaceOnUse"><stop stop-color="#fff" stop-opacity=".25"/><stop offset="1" stop-color="#fff" stop-opacity="0"/></linearGradient><linearGradient id="paint4_linear_689_76" x1="51.173" y1="38.385" x2="25.974" y2="39.626" gradientUnits="userSpaceOnUse"><stop stop-color="#fff"/><stop offset="1" stop-color="#fff" stop-opacity=".2"/></linearGradient></defs></svg>